<svg xmlns="http://www.w3.org/2000/svg" width="197.556" height="63.273" viewBox="0 0 197.556 63.273"><path d="M400.537,86.608h68.588s-6.8-18.661-17.267-18.661-13.744,12.88-13.744,12.88-7.062-7-12.862-7-10.844,9.248-10.844,9.248S406.211,78.1,400.537,86.608Z" transform="translate(-271.568 -67.947)" fill="#ebebeb"/><path d="M367.71,133.538h32.053s-7.163-10.425-12.8-10.425-7.31,6.95-7.31,6.95-3.982-3.243-7.672-2.664S367.71,133.538,367.71,133.538Z" transform="translate(-252.274 -104.452)" fill="#ebebeb" opacity="0.5"/><g transform="translate(0 24.053)"><g transform="translate(0 0)"><path d="M417.042,165.274a10.1,10.1,0,0,0-1.266-.542,5.307,5.307,0,0,0-1.38-.319,1.184,1.184,0,0,0-.429.047.628.628,0,0,0-.132.063c-.035.022-.056.04-.084.06-.056.04-.1.081-.148.122a6.6,6.6,0,0,0-.5.508c-.311.349-.588.713-.865,1.087l.343-.12a10.455,10.455,0,0,0-1.409-.3,5.843,5.843,0,0,0-.735-.052,2.6,2.6,0,0,0-.392.028,1.426,1.426,0,0,0-.21.051,1.631,1.631,0,0,0-.211.1,2.465,2.465,0,0,0-.556.534,6.779,6.779,0,0,0-.416.589,9.082,9.082,0,0,0-.656,1.257c.3-.363.595-.727.906-1.07.152-.172.308-.342.473-.494a2.289,2.289,0,0,1,.5-.385,1.283,1.283,0,0,1,.552-.054,5.2,5.2,0,0,1,.658.09c.442.079.893.19,1.327.307l.218.06.125-.18c.253-.363.529-.722.8-1.068a6,6,0,0,1,.425-.49c.036-.034.073-.074.108-.1l.05-.043c.006,0,0-.008.021-.014a.7.7,0,0,1,.242-.048,6.737,6.737,0,0,1,1.3.127C416.146,165.1,416.591,165.191,417.042,165.274Z" transform="translate(-264.893 -141.442)" fill="#263238"/><path d="M407.441,184.293a15.266,15.266,0,0,0-1.7-1.166,7.976,7.976,0,0,0-1.935-.87,1.772,1.772,0,0,0-.643-.056.955.955,0,0,0-.212.053c-.057.023-.094.043-.142.065-.095.042-.17.089-.253.135a9.6,9.6,0,0,0-.886.6c-.56.422-1.071.876-1.588,1.345l.539-.077a15.733,15.733,0,0,0-1.984-.847,8.67,8.67,0,0,0-1.066-.29,3.889,3.889,0,0,0-.584-.073,2.1,2.1,0,0,0-.324.014,2.375,2.375,0,0,0-.339.086,3.727,3.727,0,0,0-.973.621,10.209,10.209,0,0,0-.783.744,13.5,13.5,0,0,0-1.331,1.656c.55-.444,1.086-.895,1.643-1.308a10.211,10.211,0,0,1,.839-.588,3.422,3.422,0,0,1,.841-.422,1.913,1.913,0,0,1,.827.082,7.9,7.9,0,0,1,.94.323c.627.246,1.258.539,1.862.839l.3.15.236-.227c.479-.46.988-.908,1.492-1.335a8.923,8.923,0,0,1,.768-.6c.063-.04.129-.087.189-.117l.087-.049c.009,0,.009-.011.034-.014a1.038,1.038,0,0,1,.369,0,10.063,10.063,0,0,1,1.877.567C406.176,183.773,406.8,184.039,407.441,184.293Z" transform="translate(-260.27 -147.011)" fill="#263238"/><path d="M209.054,139.336a10,10,0,0,0-1.16-.742,5.33,5.33,0,0,0-1.31-.54,1.184,1.184,0,0,0-.431-.023.592.592,0,0,0-.14.04c-.038.016-.062.03-.093.046-.062.03-.111.063-.166.1a6.452,6.452,0,0,0-.578.42c-.364.293-.7.607-1.031.931l.358-.062a10.492,10.492,0,0,0-1.341-.523,5.787,5.787,0,0,0-.718-.172,2.618,2.618,0,0,0-.391-.036,1.4,1.4,0,0,0-.216.016,1.5,1.5,0,0,0-.224.064,2.488,2.488,0,0,0-.637.435,7,7,0,0,0-.507.513,9.188,9.188,0,0,0-.852,1.133c.358-.308.705-.62,1.069-.907.179-.146.361-.287.548-.411a2.287,2.287,0,0,1,.552-.3,1.278,1.278,0,0,1,.553.037,5.2,5.2,0,0,1,.635.2c.424.151.851.333,1.26.521l.2.094.153-.157c.309-.317.639-.627.966-.922a5.79,5.79,0,0,1,.5-.414c.042-.028.084-.061.124-.083l.056-.034c.006,0,.006-.008.023-.01a.691.691,0,0,1,.247-.008,6.711,6.711,0,0,1,1.264.339C208.2,139.016,208.622,139.18,209.054,139.336Z" transform="translate(-199.617 -133.175)" fill="#263238"/><path d="M223.33,135.3a15.236,15.236,0,0,0-1.279-1.619,7.943,7.943,0,0,0-1.589-1.406,1.785,1.785,0,0,0-.6-.244.991.991,0,0,0-.218-.012c-.062,0-.1.013-.155.02-.1.012-.189.035-.282.054a9.64,9.64,0,0,0-1.025.31c-.659.237-1.283.519-1.915.813l.538.087a15.709,15.709,0,0,0-1.643-1.4,8.623,8.623,0,0,0-.932-.595,3.95,3.95,0,0,0-.536-.243,2.042,2.042,0,0,0-.313-.083,2.449,2.449,0,0,0-.35-.019,3.719,3.719,0,0,0-1.114.3,10.4,10.4,0,0,0-.968.477,13.6,13.6,0,0,0-1.763,1.187c.658-.261,1.3-.532,1.958-.76a10.139,10.139,0,0,1,.977-.313,3.439,3.439,0,0,1,.928-.153,1.924,1.924,0,0,1,.765.323,7.8,7.8,0,0,1,.8.589c.525.42,1.041.888,1.528,1.354l.244.234.293-.146c.593-.3,1.211-.574,1.821-.832a8.956,8.956,0,0,1,.909-.341c.072-.019.15-.045.216-.056l.1-.021c.009,0,.012-.008.036,0a1.037,1.037,0,0,1,.353.11,10.057,10.057,0,0,1,1.623,1.1C222.276,134.427,222.8,134.866,223.33,135.3Z" transform="translate(-202.616 -130.964)" fill="#263238"/><path d="M430.9,178.467a15.134,15.134,0,0,0-1.279-1.619,7.965,7.965,0,0,0-1.589-1.406,1.784,1.784,0,0,0-.6-.244.953.953,0,0,0-.218-.012c-.062,0-.1.013-.155.02-.1.012-.189.035-.282.054a9.688,9.688,0,0,0-1.024.31c-.659.237-1.283.518-1.915.813l.538.087a15.791,15.791,0,0,0-1.643-1.4,8.711,8.711,0,0,0-.932-.594,3.958,3.958,0,0,0-.536-.243,2.119,2.119,0,0,0-.314-.083,2.427,2.427,0,0,0-.349-.019,3.72,3.72,0,0,0-1.114.3,10.323,10.323,0,0,0-.968.477,13.6,13.6,0,0,0-1.763,1.187c.657-.261,1.3-.532,1.958-.76a10.128,10.128,0,0,1,.977-.313,3.436,3.436,0,0,1,.928-.153,1.926,1.926,0,0,1,.766.323,7.783,7.783,0,0,1,.8.589c.526.42,1.042.888,1.529,1.354l.244.233.293-.146c.593-.3,1.212-.574,1.821-.832a8.964,8.964,0,0,1,.91-.341c.072-.019.15-.045.216-.056l.1-.021c.01,0,.012-.008.037,0a1.036,1.036,0,0,1,.353.11,10.05,10.05,0,0,1,1.623,1.1C429.849,177.595,430.368,178.034,430.9,178.467Z" transform="translate(-267.64 -144.487)" fill="#263238"/></g></g><path d="M400.537,86.608h68.588s-6.8-18.661-17.267-18.661-13.744,12.88-13.744,12.88-7.062-7-12.862-7-10.844,9.248-10.844,9.248S406.211,78.1,400.537,86.608Z" transform="translate(-391.568 -67.947)" fill="#ebebeb"/><path d="M367.71,133.538h32.053s-7.163-10.425-12.8-10.425-7.31,6.95-7.31,6.95-3.982-3.243-7.672-2.664S367.71,133.538,367.71,133.538Z" transform="translate(-364.274 -94.028)" fill="#ebebeb" opacity="0.5"/></svg>